<svg xmlns="http://www.w3.org/2000/svg" xmlns:xlink="http://www.w3.org/1999/xlink" width="259" zoomAndPan="magnify" viewBox="0 0 194.25 60" height="80" preserveAspectRatio="xMidYMid meet" version="1.0"><defs><g/></defs><path stroke-linecap="butt" transform="matrix(0.747115, 0, 0, 0.747115, 39.505257, 40.134934)" fill="none" stroke-linejoin="miter" d="M -0.00180736 2.501584 L 65.693578 2.501584 " stroke="#c6a90f" stroke-width="5" stroke-opacity="1" stroke-miterlimit="4"/><g fill="#cf1b1b" fill-opacity="1"><g transform="translate(91.119501, 42.745375)"><g><path d="M 2.890625 -2.921875 L 1.84375 -2.921875 L 1.84375 0 L 1.140625 0 L 1.140625 -2.921875 L 0.109375 -2.921875 L 0.109375 -3.515625 L 2.890625 -3.515625 Z M 2.890625 -2.921875 "/></g></g></g><g fill="#cf1b1b" fill-opacity="1"><g transform="translate(95.333099, 42.745375)"><g><path d="M 1.0625 -2.125 L 2.453125 -2.125 L 2.453125 -3.515625 L 3.15625 -3.515625 L 3.15625 0 L 2.453125 0 L 2.453125 -1.53125 L 1.0625 -1.53125 L 1.0625 0 L 0.359375 0 L 0.359375 -3.515625 L 1.0625 -3.515625 Z M 1.0625 -2.125 "/></g></g></g><g fill="#cf1b1b" fill-opacity="1"><g transform="translate(100.091183, 42.745375)"><g><path d="M 3.53125 0 L 2.75 0 L 2.453125 -0.796875 L 1.046875 -0.796875 L 0.75 0 L 0 0 L 1.375 -3.515625 L 2.125 -3.515625 Z M 1.265625 -1.390625 L 2.21875 -1.390625 L 1.734375 -2.6875 Z M 1.265625 -1.390625 "/></g></g></g><g fill="#cf1b1b" fill-opacity="1"><g transform="translate(104.849268, 42.745375)"><g><path d="M 1.046875 0 L 0.328125 0 L 0.328125 -3.515625 L 1.046875 -3.515625 Z M 1.046875 0 "/></g></g></g><g fill="#cf1b1b" fill-opacity="1"><g transform="translate(107.429422, 42.745375)"><g/></g></g><g fill="#cf1b1b" fill-opacity="1"><g transform="translate(110.009576, 42.745375)"><g><path d="M 2.890625 -2.921875 L 1.84375 -2.921875 L 1.84375 0 L 1.140625 0 L 1.140625 -2.921875 L 0.109375 -2.921875 L 0.109375 -3.515625 L 2.890625 -3.515625 Z M 2.890625 -2.921875 "/></g></g></g><g fill="#cf1b1b" fill-opacity="1"><g transform="translate(114.223173, 42.745375)"><g><path d="M 3.53125 0 L 2.75 0 L 2.453125 -0.796875 L 1.046875 -0.796875 L 0.75 0 L 0 0 L 1.375 -3.515625 L 2.125 -3.515625 Z M 1.265625 -1.390625 L 2.21875 -1.390625 L 1.734375 -2.6875 Z M 1.265625 -1.390625 "/></g></g></g><g fill="#cf1b1b" fill-opacity="1"><g transform="translate(118.981256, 42.745375)"><g><path d="M 2.4375 -3.421875 C 2.613281 -3.347656 2.757812 -3.226562 2.875 -3.0625 C 2.988281 -2.90625 3.046875 -2.695312 3.046875 -2.4375 C 3.046875 -2.175781 2.988281 -1.960938 2.875 -1.796875 C 2.757812 -1.628906 2.617188 -1.507812 2.453125 -1.4375 C 2.273438 -1.363281 1.992188 -1.328125 1.609375 -1.328125 L 1.0625 -1.328125 L 1.0625 0 L 0.359375 0 L 0.359375 -3.515625 L 1.578125 -3.515625 C 1.804688 -3.515625 1.988281 -3.507812 2.125 -3.5 C 2.257812 -3.488281 2.363281 -3.460938 2.4375 -3.421875 Z M 2.3125 -2.421875 C 2.3125 -2.628906 2.207031 -2.78125 2 -2.875 C 1.925781 -2.90625 1.769531 -2.921875 1.53125 -2.921875 L 1.0625 -2.921875 L 1.0625 -1.921875 L 1.53125 -1.921875 C 1.769531 -1.921875 1.957031 -1.953125 2.09375 -2.015625 C 2.238281 -2.085938 2.3125 -2.222656 2.3125 -2.421875 Z M 2.3125 -2.421875 "/></g></g></g><g fill="#cf1b1b" fill-opacity="1"><g transform="translate(123.469551, 42.745375)"><g><path d="M 3.53125 0 L 2.75 0 L 2.453125 -0.796875 L 1.046875 -0.796875 L 0.75 0 L 0 0 L 1.375 -3.515625 L 2.125 -3.515625 Z M 1.265625 -1.390625 L 2.21875 -1.390625 L 1.734375 -2.6875 Z M 1.265625 -1.390625 "/></g></g></g><g fill="#cf1b1b" fill-opacity="1"><g transform="translate(128.227634, 42.745375)"><g><path d="M 1.578125 -3.578125 C 1.972656 -3.578125 2.289062 -3.488281 2.53125 -3.3125 C 2.78125 -3.132812 2.910156 -2.863281 2.921875 -2.5 L 2.21875 -2.484375 C 2.195312 -2.640625 2.132812 -2.757812 2.03125 -2.84375 C 1.9375 -2.9375 1.785156 -2.984375 1.578125 -2.984375 C 1.429688 -2.984375 1.296875 -2.957031 1.171875 -2.90625 C 1.046875 -2.851562 0.984375 -2.765625 0.984375 -2.640625 C 0.984375 -2.535156 1.035156 -2.445312 1.140625 -2.375 C 1.253906 -2.3125 1.453125 -2.25 1.734375 -2.1875 C 2.003906 -2.125 2.222656 -2.054688 2.390625 -1.984375 C 2.566406 -1.921875 2.71875 -1.8125 2.84375 -1.65625 C 2.96875 -1.5 3.03125 -1.285156 3.03125 -1.015625 C 3.03125 -0.878906 3 -0.738281 2.9375 -0.59375 C 2.875 -0.445312 2.769531 -0.316406 2.625 -0.203125 C 2.519531 -0.117188 2.378906 -0.0507812 2.203125 0 C 2.035156 0.0390625 1.84375 0.0625 1.625 0.0625 C 1.1875 0.0625 0.847656 -0.0351562 0.609375 -0.234375 C 0.367188 -0.429688 0.222656 -0.734375 0.171875 -1.140625 L 0.859375 -1.203125 C 0.929688 -0.753906 1.1875 -0.53125 1.625 -0.53125 C 1.851562 -0.53125 2.023438 -0.578125 2.140625 -0.671875 C 2.265625 -0.773438 2.328125 -0.890625 2.328125 -1.015625 C 2.328125 -1.109375 2.296875 -1.179688 2.234375 -1.234375 C 2.179688 -1.296875 2.09375 -1.347656 1.96875 -1.390625 C 1.84375 -1.429688 1.648438 -1.484375 1.390625 -1.546875 C 1.054688 -1.617188 0.789062 -1.738281 0.59375 -1.90625 C 0.394531 -2.070312 0.296875 -2.300781 0.296875 -2.59375 C 0.296875 -2.75 0.335938 -2.898438 0.421875 -3.046875 C 0.503906 -3.191406 0.640625 -3.316406 0.828125 -3.421875 C 1.015625 -3.523438 1.265625 -3.578125 1.578125 -3.578125 Z M 1.578125 -3.578125 "/></g></g></g><g fill="#cf1b1b" fill-opacity="1"><g transform="translate(132.715929, 42.745375)"><g/></g></g><g fill="#cf1b1b" fill-opacity="1"><g transform="translate(135.296083, 42.745375)"><g><path d="M 1.640625 -3.578125 C 1.835938 -3.578125 2.007812 -3.539062 2.15625 -3.46875 C 2.300781 -3.394531 2.410156 -3.296875 2.484375 -3.171875 C 2.566406 -3.054688 2.609375 -2.921875 2.609375 -2.765625 C 2.609375 -2.597656 2.554688 -2.453125 2.453125 -2.328125 C 2.347656 -2.203125 2.1875 -2.070312 1.96875 -1.9375 L 2.453125 -1.28125 C 2.484375 -1.332031 2.507812 -1.394531 2.53125 -1.46875 C 2.5625 -1.550781 2.585938 -1.625 2.609375 -1.6875 L 3.21875 -1.546875 C 3.15625 -1.335938 3.097656 -1.179688 3.046875 -1.078125 C 3.003906 -0.972656 2.957031 -0.890625 2.90625 -0.828125 C 3 -0.742188 3.109375 -0.660156 3.234375 -0.578125 C 3.359375 -0.492188 3.4375 -0.445312 3.46875 -0.4375 L 3.0625 0.09375 C 2.976562 0.0625 2.875 0.00390625 2.75 -0.078125 C 2.632812 -0.171875 2.546875 -0.25 2.484375 -0.3125 C 2.359375 -0.1875 2.210938 -0.09375 2.046875 -0.03125 C 1.890625 0.03125 1.695312 0.0625 1.46875 0.0625 C 1.15625 0.0625 0.90625 0.0078125 0.71875 -0.09375 C 0.53125 -0.207031 0.398438 -0.34375 0.328125 -0.5 C 0.253906 -0.65625 0.21875 -0.8125 0.21875 -0.96875 C 0.21875 -1.15625 0.273438 -1.34375 0.390625 -1.53125 C 0.503906 -1.71875 0.710938 -1.890625 1.015625 -2.046875 C 0.773438 -2.316406 0.65625 -2.570312 0.65625 -2.8125 C 0.65625 -2.957031 0.691406 -3.085938 0.765625 -3.203125 C 0.847656 -3.316406 0.960938 -3.40625 1.109375 -3.46875 C 1.265625 -3.539062 1.441406 -3.578125 1.640625 -3.578125 Z M 1.3125 -2.828125 C 1.3125 -2.753906 1.363281 -2.648438 1.46875 -2.515625 L 1.625 -2.34375 C 1.738281 -2.414062 1.832031 -2.484375 1.90625 -2.546875 C 1.976562 -2.617188 2.015625 -2.695312 2.015625 -2.78125 C 2.015625 -2.863281 1.984375 -2.9375 1.921875 -3 C 1.859375 -3.0625 1.769531 -3.09375 1.65625 -3.09375 C 1.539062 -3.09375 1.453125 -3.066406 1.390625 -3.015625 C 1.335938 -2.960938 1.3125 -2.898438 1.3125 -2.828125 Z M 0.90625 -0.984375 C 0.90625 -0.847656 0.945312 -0.734375 1.03125 -0.640625 C 1.125 -0.546875 1.257812 -0.5 1.4375 -0.5 C 1.5625 -0.5 1.671875 -0.519531 1.765625 -0.5625 C 1.859375 -0.613281 1.957031 -0.679688 2.0625 -0.765625 L 1.375 -1.609375 C 1.21875 -1.523438 1.097656 -1.425781 1.015625 -1.3125 C 0.941406 -1.207031 0.90625 -1.097656 0.90625 -0.984375 Z M 0.90625 -0.984375 "/></g></g></g><g fill="#cf1b1b" fill-opacity="1"><g transform="translate(140.054166, 42.745375)"><g/></g></g><g fill="#cf1b1b" fill-opacity="1"><g transform="translate(142.63432, 42.745375)"><g><path d="M 2.546875 -3.4375 C 2.710938 -3.375 2.847656 -3.269531 2.953125 -3.125 C 3.066406 -2.976562 3.125 -2.8125 3.125 -2.625 C 3.125 -2.4375 3.070312 -2.273438 2.96875 -2.140625 C 2.863281 -2.003906 2.753906 -1.914062 2.640625 -1.875 C 2.867188 -1.800781 3.035156 -1.6875 3.140625 -1.53125 C 3.242188 -1.375 3.296875 -1.203125 3.296875 -1.015625 C 3.296875 -0.816406 3.238281 -0.625 3.125 -0.4375 C 3.007812 -0.257812 2.851562 -0.140625 2.65625 -0.078125 C 2.5625 -0.046875 2.445312 -0.0234375 2.3125 -0.015625 C 2.175781 -0.00390625 2.015625 0 1.828125 0 L 0.359375 0 L 0.359375 -3.515625 L 1.828125 -3.515625 C 1.992188 -3.515625 2.132812 -3.507812 2.25 -3.5 C 2.363281 -3.488281 2.460938 -3.46875 2.546875 -3.4375 Z M 2.4375 -2.515625 C 2.4375 -2.609375 2.414062 -2.679688 2.375 -2.734375 C 2.332031 -2.796875 2.273438 -2.84375 2.203125 -2.875 C 2.140625 -2.90625 2.019531 -2.921875 1.84375 -2.921875 L 1.0625 -2.921875 L 1.0625 -2.109375 L 1.859375 -2.109375 C 2.242188 -2.109375 2.4375 -2.242188 2.4375 -2.515625 Z M 2.203125 -0.609375 C 2.304688 -0.628906 2.394531 -0.675781 2.46875 -0.75 C 2.539062 -0.820312 2.578125 -0.921875 2.578125 -1.046875 C 2.578125 -1.179688 2.539062 -1.28125 2.46875 -1.34375 C 2.394531 -1.414062 2.300781 -1.460938 2.1875 -1.484375 C 2.070312 -1.503906 1.921875 -1.515625 1.734375 -1.515625 L 1.0625 -1.515625 L 1.0625 -0.59375 L 1.796875 -0.59375 C 1.972656 -0.59375 2.109375 -0.597656 2.203125 -0.609375 Z M 2.203125 -0.609375 "/></g></g></g><g fill="#cf1b1b" fill-opacity="1"><g transform="translate(147.392406, 42.745375)"><g><path d="M 3.53125 0 L 2.75 0 L 2.453125 -0.796875 L 1.046875 -0.796875 L 0.75 0 L 0 0 L 1.375 -3.515625 L 2.125 -3.515625 Z M 1.265625 -1.390625 L 2.21875 -1.390625 L 1.734375 -2.6875 Z M 1.265625 -1.390625 "/></g></g></g><g fill="#cf1b1b" fill-opacity="1"><g transform="translate(152.150489, 42.745375)"><g><path d="M 2.71875 -3.40625 C 2.863281 -3.34375 2.984375 -3.226562 3.078125 -3.0625 C 3.179688 -2.90625 3.234375 -2.726562 3.234375 -2.53125 C 3.234375 -2.269531 3.148438 -2.046875 2.984375 -1.859375 C 2.828125 -1.679688 2.597656 -1.578125 2.296875 -1.546875 C 2.429688 -1.453125 2.53125 -1.375 2.59375 -1.3125 C 2.65625 -1.257812 2.726562 -1.179688 2.8125 -1.078125 C 2.894531 -0.984375 2.992188 -0.835938 3.109375 -0.640625 L 3.515625 0 L 2.65625 0 L 2.09375 -0.859375 C 1.96875 -1.046875 1.867188 -1.175781 1.796875 -1.25 C 1.722656 -1.332031 1.644531 -1.390625 1.5625 -1.421875 C 1.488281 -1.453125 1.378906 -1.46875 1.234375 -1.46875 L 1.0625 -1.46875 L 1.0625 0 L 0.359375 0 L 0.359375 -3.515625 L 1.890625 -3.515625 C 2.054688 -3.515625 2.207031 -3.503906 2.34375 -3.484375 C 2.476562 -3.472656 2.601562 -3.445312 2.71875 -3.40625 Z M 2.21875 -2.0625 C 2.300781 -2.09375 2.367188 -2.144531 2.421875 -2.21875 C 2.472656 -2.289062 2.5 -2.378906 2.5 -2.484375 C 2.5 -2.671875 2.414062 -2.800781 2.25 -2.875 C 2.207031 -2.894531 2.15625 -2.90625 2.09375 -2.90625 C 2.03125 -2.914062 1.925781 -2.921875 1.78125 -2.921875 L 1.0625 -2.921875 L 1.0625 -2.03125 L 1.6875 -2.03125 C 1.945312 -2.03125 2.125 -2.039062 2.21875 -2.0625 Z M 2.21875 -2.0625 "/></g></g></g><g fill="#c6a90f" fill-opacity="1"><g transform="translate(32.351688, 26.239078)"><g><path d="M 22.976562 -10.179688 C 21.863281 -10.738281 20.558594 -9.542969 19.777344 -8.902344 C 18.527344 -7.84375 17.386719 -6.648438 16.300781 -5.398438 C 16.886719 -6.757812 17.46875 -8.152344 17.859375 -9.570312 C 18.136719 -10.515625 18.441406 -11.601562 18.332031 -12.601562 C 18.25 -13.378906 17.746094 -14.160156 16.96875 -14.355469 C 16.273438 -14.519531 15.660156 -14.074219 15.132812 -13.660156 C 13.128906 -12.101562 11.515625 -9.902344 10.015625 -7.84375 C 10.460938 -9.039062 10.875 -10.265625 11.128906 -11.488281 C 11.320312 -12.296875 11.460938 -13.128906 11.183594 -13.910156 C 10.570312 -15.605469 8.902344 -15.578125 7.59375 -14.800781 C 5.871094 -13.769531 4.421875 -12.183594 3.253906 -10.542969 C 1.917969 -8.652344 0.640625 -6.316406 0.808594 -3.949219 C 0.835938 -3.503906 1.195312 -3.117188 1.558594 -2.921875 C 1.835938 -2.808594 2.335938 -2.753906 2.28125 -3.199219 C 2.167969 -5.007812 3.003906 -6.816406 3.949219 -8.34375 C 4.953125 -9.957031 6.230469 -11.488281 7.734375 -12.710938 C 8.261719 -13.128906 8.816406 -13.546875 9.484375 -13.769531 C 9.570312 -13.824219 9.679688 -13.824219 9.820312 -13.851562 C 9.820312 -13.6875 9.847656 -13.492188 9.847656 -13.464844 C 9.820312 -12.992188 9.707031 -12.519531 9.570312 -12.046875 C 9.097656 -10.265625 8.457031 -8.511719 7.734375 -6.816406 C 6.09375 -2.976562 3.976562 0.613281 1.890625 4.199219 C 1.585938 4.757812 2.921875 5.953125 3.339844 5.257812 C 5.398438 1.917969 7.539062 -1.363281 9.820312 -4.5625 C 11.488281 -6.871094 13.1875 -9.179688 15.1875 -11.210938 C 15.660156 -11.738281 16.21875 -12.324219 16.859375 -12.683594 C 16.746094 -10.429688 15.578125 -8.066406 14.6875 -6.0625 C 14.046875 -4.5625 13.324219 -3.085938 12.710938 -1.558594 C 12.296875 -0.613281 11.824219 0.445312 11.792969 1.503906 C 11.765625 1.976562 12.964844 3.144531 13.242188 2.390625 C 13.851562 0.75 14.910156 -0.75 15.996094 -2.140625 C 17.191406 -3.726562 18.527344 -5.230469 19.945312 -6.59375 C 20.53125 -7.148438 21.140625 -7.675781 21.808594 -8.152344 C 21.949219 -8.289062 22.113281 -8.402344 22.28125 -8.484375 C 22.003906 -7.566406 21.585938 -6.648438 21.226562 -5.757812 C 20.667969 -4.394531 20.054688 -3.003906 19.695312 -1.585938 C 19.417969 -0.613281 19.25 0.445312 19.695312 1.417969 C 19.863281 1.726562 20.308594 2.199219 20.722656 2.167969 C 21.113281 2.113281 21.140625 1.753906 20.972656 1.445312 C 20.558594 0.554688 21.226562 -0.945312 21.503906 -1.78125 C 21.976562 -3.144531 22.558594 -4.480469 23.117188 -5.8125 C 23.617188 -7.09375 24.730469 -9.320312 22.976562 -10.179688 Z M 17.359375 -12.90625 C 17.414062 -12.964844 17.414062 -12.878906 17.359375 -12.90625 Z M 10.097656 -13.910156 C 10.179688 -13.9375 10.152344 -13.824219 10.097656 -13.910156 Z M 16.828125 -13.378906 C 16.828125 -13.40625 16.828125 -13.40625 16.828125 -13.40625 C 16.886719 -13.378906 16.828125 -13.378906 16.828125 -13.378906 Z M 22.476562 -9.484375 C 22.476562 -9.484375 22.476562 -9.457031 22.476562 -9.429688 C 22.449219 -9.457031 22.449219 -9.484375 22.476562 -9.484375 Z M 22.476562 -9.484375 "/></g></g></g><g fill="#c6a90f" fill-opacity="1"><g transform="translate(57.106719, 26.239078)"><g><path d="M 10.429688 -3.53125 C 9.375 -2.585938 6.425781 -0.390625 4.757812 -0.195312 C 4.730469 -0.195312 4.730469 -0.195312 4.703125 -0.195312 C 4.785156 -0.613281 4.839844 -1 5.007812 -1.445312 C 5.144531 -1.863281 5.3125 -2.28125 5.367188 -2.726562 C 5.398438 -2.78125 5.398438 -2.863281 5.367188 -2.976562 C 5.367188 -3.253906 5.0625 -3.617188 4.730469 -3.839844 C 4.535156 -3.976562 4.3125 -4.0625 4.117188 -4.003906 C 3.949219 -3.976562 3.8125 -3.921875 3.644531 -3.867188 C 2.863281 -4.894531 1.445312 -5.089844 0.332031 -4.285156 C -1.027344 -3.253906 -1.945312 -1.53125 -2.308594 0.109375 C -2.421875 0.667969 -1.640625 1.585938 -1.058594 1.363281 C 0.613281 0.695312 1.863281 -0.75 3.339844 -1.726562 C 3.199219 -1.25 3.117188 -0.777344 3.28125 -0.25 C 3.503906 0.527344 4.199219 1.195312 5.035156 1.308594 C 5.871094 1.390625 6.675781 0.945312 7.34375 0.554688 C 8.816406 -0.332031 10.125 -1.472656 11.40625 -2.613281 C 11.90625 -3.085938 10.960938 -4.035156 10.429688 -3.53125 Z M 0.390625 -1.695312 C 0.390625 -1.695312 0.417969 -1.726562 0.417969 -1.726562 C 0.722656 -2.113281 1.058594 -2.503906 1.417969 -2.808594 C 1.667969 -3.003906 1.917969 -3.226562 2.226562 -3.308594 C 2.335938 -3.308594 2.449219 -3.339844 2.558594 -3.367188 C 2.558594 -3.339844 2.558594 -3.339844 2.585938 -3.339844 C 1.808594 -2.894531 1.113281 -2.28125 0.390625 -1.695312 Z M 0.390625 -1.695312 "/></g></g></g><g fill="#c6a90f" fill-opacity="1"><g transform="translate(67.704093, 26.239078)"><g><path d="M 7.203125 -3.476562 C 5.5625 -2.199219 1.558594 -0.222656 -0.109375 0 C -0.0546875 -0.222656 0.0273438 -0.445312 0.109375 -0.640625 C 1.113281 -1.113281 4.839844 -2.558594 3.253906 -4.199219 C 2.167969 -5.339844 0.695312 -4.3125 -0.140625 -3.421875 C -1.058594 -2.421875 -2.335938 -0.445312 -1.335938 0.890625 C -0.695312 1.78125 0.25 1.695312 1.167969 1.390625 C 3.671875 0.5 5.980469 -1.167969 8.179688 -2.585938 C 8.707031 -2.949219 7.789062 -3.921875 7.203125 -3.476562 Z M 7.203125 -3.476562 "/></g></g></g><g fill="#c6a90f" fill-opacity="1"><g transform="translate(75.533334, 30.947544)"><g><path d="M 3.6875 -10.90625 L 12.71875 -20.71875 L 14.1875 -19.4375 L 5.90625 -10.5 L 14.40625 -1.171875 L 12.890625 0.171875 L 3.6875 -9.875 L 3.6875 -0.171875 L 1.625 0.171875 L 1.625 -20.375 L 3.6875 -20.71875 Z M 3.6875 -10.90625 "/></g></g></g><g fill="#c6a90f" fill-opacity="1"><g transform="translate(89.800139, 30.947544)"><g><path d="M 3.421875 -9.703125 C 3.804688 -10.117188 4.238281 -10.445312 4.71875 -10.6875 C 5.207031 -10.9375 5.738281 -11.0625 6.3125 -11.0625 C 6.800781 -11.0625 7.269531 -10.976562 7.71875 -10.8125 C 8.164062 -10.644531 8.5625 -10.398438 8.90625 -10.078125 C 9.25 -9.765625 9.519531 -9.382812 9.71875 -8.9375 C 9.914062 -8.5 10.015625 -7.992188 10.015625 -7.421875 L 10.015625 -0.171875 L 8.1875 0.171875 L 8.1875 -6.765625 C 8.1875 -7.523438 7.988281 -8.128906 7.59375 -8.578125 C 7.207031 -9.023438 6.691406 -9.25 6.046875 -9.25 C 5.585938 -9.25 5.191406 -9.148438 4.859375 -8.953125 C 4.523438 -8.765625 4.253906 -8.53125 4.046875 -8.25 C 3.835938 -7.976562 3.679688 -7.679688 3.578125 -7.359375 C 3.472656 -7.035156 3.421875 -6.734375 3.421875 -6.453125 L 3.421875 -0.171875 L 1.59375 0.171875 L 1.59375 -20.546875 L 3.421875 -20.890625 Z M 3.421875 -9.703125 "/></g></g></g><g fill="#c6a90f" fill-opacity="1"><g transform="translate(101.413322, 30.947544)"><g><path d="M 6.59375 -9.359375 C 6.039062 -9.359375 5.53125 -9.253906 5.0625 -9.046875 C 4.59375 -8.835938 4.1875 -8.550781 3.84375 -8.1875 C 3.507812 -7.820312 3.238281 -7.394531 3.03125 -6.90625 C 2.832031 -6.425781 2.734375 -5.910156 2.734375 -5.359375 C 2.734375 -4.804688 2.828125 -4.289062 3.015625 -3.8125 C 3.210938 -3.34375 3.484375 -2.921875 3.828125 -2.546875 C 4.171875 -2.179688 4.578125 -1.894531 5.046875 -1.6875 C 5.523438 -1.476562 6.050781 -1.375 6.625 -1.375 C 7.1875 -1.375 7.707031 -1.476562 8.1875 -1.6875 C 8.664062 -1.894531 9.070312 -2.179688 9.40625 -2.546875 C 9.75 -2.921875 10.015625 -3.34375 10.203125 -3.8125 C 10.398438 -4.289062 10.5 -4.804688 10.5 -5.359375 C 10.5 -5.890625 10.398438 -6.394531 10.203125 -6.875 C 10.015625 -7.351562 9.75 -7.773438 9.40625 -8.140625 C 9.070312 -8.515625 8.664062 -8.8125 8.1875 -9.03125 C 7.707031 -9.25 7.175781 -9.359375 6.59375 -9.359375 Z M 0.90625 -5.359375 C 0.90625 -6.109375 1.046875 -6.820312 1.328125 -7.5 C 1.617188 -8.1875 2.019531 -8.789062 2.53125 -9.3125 C 3.050781 -9.832031 3.65625 -10.253906 4.34375 -10.578125 C 5.039062 -10.898438 5.800781 -11.0625 6.625 -11.0625 C 7.4375 -11.0625 8.1875 -10.898438 8.875 -10.578125 C 9.570312 -10.253906 10.175781 -9.832031 10.6875 -9.3125 C 11.207031 -8.789062 11.609375 -8.1875 11.890625 -7.5 C 12.179688 -6.820312 12.328125 -6.109375 12.328125 -5.359375 C 12.328125 -4.617188 12.179688 -3.90625 11.890625 -3.21875 C 11.609375 -2.539062 11.207031 -1.9375 10.6875 -1.40625 C 10.175781 -0.882812 9.570312 -0.460938 8.875 -0.140625 C 8.1875 0.179688 7.4375 0.34375 6.625 0.34375 C 5.800781 0.34375 5.039062 0.179688 4.34375 -0.140625 C 3.65625 -0.460938 3.050781 -0.882812 2.53125 -1.40625 C 2.019531 -1.9375 1.617188 -2.539062 1.328125 -3.21875 C 1.046875 -3.90625 0.90625 -4.617188 0.90625 -5.359375 Z M 0.90625 -5.359375 "/></g></g></g><g fill="#c6a90f" fill-opacity="1"><g transform="translate(114.652923, 30.947544)"><g><path d="M 3.3125 -9.609375 C 3.769531 -10.085938 4.234375 -10.445312 4.703125 -10.6875 C 5.179688 -10.9375 5.773438 -11.0625 6.484375 -11.0625 C 7.179688 -11.0625 7.785156 -10.953125 8.296875 -10.734375 C 8.816406 -10.515625 9.242188 -10.21875 9.578125 -9.84375 C 9.910156 -9.476562 10.15625 -9.054688 10.3125 -8.578125 C 10.476562 -8.109375 10.5625 -7.628906 10.5625 -7.140625 L 10.5625 -0.171875 L 8.734375 0.171875 L 8.734375 -6.25 C 8.734375 -7.195312 8.515625 -7.929688 8.078125 -8.453125 C 7.640625 -8.984375 7.054688 -9.25 6.328125 -9.25 C 5.835938 -9.25 5.40625 -9.148438 5.03125 -8.953125 C 4.664062 -8.765625 4.363281 -8.519531 4.125 -8.21875 C 3.882812 -7.914062 3.707031 -7.582031 3.59375 -7.21875 C 3.476562 -6.851562 3.421875 -6.492188 3.421875 -6.140625 L 3.421875 -0.171875 L 1.59375 0.171875 L 1.59375 -10.5625 L 3.3125 -10.90625 Z M 3.3125 -9.609375 "/></g></g></g><g fill="#c6a90f" fill-opacity="1"><g transform="translate(126.808241, 30.947544)"><g><path d="M 5.1875 -9.46875 C 4.832031 -9.46875 4.492188 -9.398438 4.171875 -9.265625 C 3.859375 -9.140625 3.585938 -8.96875 3.359375 -8.75 C 3.140625 -8.53125 2.960938 -8.273438 2.828125 -7.984375 C 2.691406 -7.703125 2.625 -7.398438 2.625 -7.078125 C 2.625 -6.785156 2.679688 -6.5 2.796875 -6.21875 C 2.910156 -5.9375 3.070312 -5.679688 3.28125 -5.453125 C 3.488281 -5.222656 3.753906 -5.035156 4.078125 -4.890625 C 4.398438 -4.742188 4.769531 -4.671875 5.1875 -4.671875 C 5.9375 -4.671875 6.550781 -4.914062 7.03125 -5.40625 C 7.519531 -5.894531 7.765625 -6.453125 7.765625 -7.078125 C 7.765625 -7.335938 7.710938 -7.609375 7.609375 -7.890625 C 7.503906 -8.179688 7.34375 -8.441406 7.125 -8.671875 C 6.914062 -8.898438 6.648438 -9.085938 6.328125 -9.234375 C 6.003906 -9.390625 5.625 -9.46875 5.1875 -9.46875 Z M 9.265625 -11.296875 L 8.953125 -10.09375 L 8.125 -9.984375 L 8.125 -9.921875 C 8.5625 -9.640625 8.894531 -9.21875 9.125 -8.65625 C 9.351562 -8.09375 9.46875 -7.535156 9.46875 -6.984375 C 9.46875 -6.078125 9.210938 -5.328125 8.703125 -4.734375 C 8.191406 -4.148438 7.503906 -3.742188 6.640625 -3.515625 L 6.640625 -3.453125 C 7.578125 -3.285156 8.3125 -2.878906 8.84375 -2.234375 C 9.375 -1.597656 9.640625 -0.828125 9.640625 0.078125 C 9.640625 0.460938 9.554688 0.898438 9.390625 1.390625 C 9.234375 1.890625 8.96875 2.359375 8.59375 2.796875 C 8.226562 3.234375 7.753906 3.597656 7.171875 3.890625 C 6.597656 4.191406 5.890625 4.34375 5.046875 4.34375 C 4.347656 4.34375 3.664062 4.171875 3 3.828125 C 2.332031 3.484375 1.734375 3.035156 1.203125 2.484375 L 2.28125 1 C 2.71875 1.53125 3.191406 1.929688 3.703125 2.203125 C 4.222656 2.484375 4.726562 2.625 5.21875 2.625 C 5.582031 2.625 5.921875 2.550781 6.234375 2.40625 C 6.546875 2.269531 6.820312 2.085938 7.0625 1.859375 C 7.300781 1.628906 7.484375 1.359375 7.609375 1.046875 C 7.742188 0.742188 7.8125 0.429688 7.8125 0.109375 C 7.8125 -0.171875 7.75 -0.457031 7.625 -0.75 C 7.507812 -1.050781 7.335938 -1.316406 7.109375 -1.546875 C 6.878906 -1.773438 6.609375 -1.960938 6.296875 -2.109375 C 5.984375 -2.265625 5.632812 -2.34375 5.25 -2.34375 C 4.8125 -2.34375 4.375 -2.234375 3.9375 -2.015625 C 3.5 -1.796875 3.117188 -1.503906 2.796875 -1.140625 L 1.65625 -2.453125 C 1.9375 -2.753906 2.238281 -2.988281 2.5625 -3.15625 C 2.882812 -3.332031 3.179688 -3.441406 3.453125 -3.484375 L 3.453125 -3.53125 L 3.421875 -3.53125 C 3.160156 -3.570312 2.882812 -3.675781 2.59375 -3.84375 C 2.3125 -4.019531 2.039062 -4.253906 1.78125 -4.546875 C 1.519531 -4.847656 1.304688 -5.191406 1.140625 -5.578125 C 0.984375 -5.960938 0.90625 -6.40625 0.90625 -6.90625 C 0.90625 -7.53125 1.023438 -8.097656 1.265625 -8.609375 C 1.503906 -9.128906 1.828125 -9.566406 2.234375 -9.921875 C 2.648438 -10.285156 3.128906 -10.566406 3.671875 -10.765625 C 4.210938 -10.960938 4.796875 -11.0625 5.421875 -11.0625 C 5.648438 -11.0625 5.859375 -11.046875 6.046875 -11.015625 C 6.234375 -10.992188 6.429688 -10.957031 6.640625 -10.90625 Z M 9.265625 -11.296875 "/></g></g></g></svg>